<mxfile host="app.diagrams.net" modified="2022-03-06T10:53:28.601Z" agent="5.0 (Windows NT 10.0; Win64; x64) AppleWebKit/537.36 (KHTML, like Gecko) Chrome/99.0.4844.51 Safari/537.36" etag="OVcE2K5aX_RNVG5HEdiF" version="16.6.4" type="github">
  <diagram id="W2s8MJLVWpJcEm56MW2T" name="Page-1">
    <mxGraphModel dx="6857" dy="2189" grid="1" gridSize="10" guides="1" tooltips="1" connect="1" arrows="1" fold="1" page="1" pageScale="1" pageWidth="1169" pageHeight="827" math="0" shadow="0">
      <root>
        <mxCell id="0" />
        <mxCell id="1" parent="0" />
        <mxCell id="6P3J1ddqpNdzm3xkEEqz-1" value="EGE" style="ellipse;whiteSpace=wrap;html=1;shadow=0;fontFamily=Helvetica;fontSize=30;fontColor=#2F5B7C;align=center;strokeColor=#2F5B7C;strokeWidth=6;fillColor=#FFFFFF;fontStyle=1;gradientColor=none;rotation=0;" parent="1" vertex="1">
          <mxGeometry x="400" y="1830" width="210" height="210" as="geometry" />
        </mxCell>
        <mxCell id="6P3J1ddqpNdzm3xkEEqz-4" value="Az" style="ellipse;whiteSpace=wrap;html=1;shadow=0;fontFamily=Helvetica;fontSize=30;fontColor=#2F5B7C;align=center;strokeColor=#2F5B7C;strokeWidth=6;fillColor=#FFFFFF;fontStyle=1;gradientColor=none;" parent="1" vertex="1">
          <mxGeometry x="290" y="1000" width="200" height="200" as="geometry" />
        </mxCell>
        <mxCell id="6P3J1ddqpNdzm3xkEEqz-6" value="Enso" style="ellipse;whiteSpace=wrap;html=1;shadow=0;fontFamily=Helvetica;fontSize=30;fontColor=#2F5B7C;align=center;strokeColor=#2F5B7C;strokeWidth=6;fillColor=#FFFFFF;fontStyle=1;gradientColor=none;" parent="1" vertex="1">
          <mxGeometry x="330" y="2695" width="200" height="200" as="geometry" />
        </mxCell>
        <mxCell id="6P3J1ddqpNdzm3xkEEqz-7" value="FSC" style="ellipse;whiteSpace=wrap;html=1;shadow=0;fontFamily=Helvetica;fontSize=30;fontColor=#2F5B7C;align=center;strokeColor=#2F5B7C;strokeWidth=6;fillColor=#FFFFFF;fontStyle=1;gradientColor=none;" parent="1" vertex="1">
          <mxGeometry x="1020" y="2530" width="200" height="200" as="geometry" />
        </mxCell>
        <mxCell id="6P3J1ddqpNdzm3xkEEqz-8" value="Munster" style="ellipse;whiteSpace=wrap;html=1;shadow=0;fontFamily=Helvetica;fontSize=30;fontColor=#2F5B7C;align=center;strokeColor=#2F5B7C;strokeWidth=6;fillColor=#FFFFFF;fontStyle=1;gradientColor=none;" parent="1" vertex="1">
          <mxGeometry x="-430" y="2600" width="200" height="200" as="geometry" />
        </mxCell>
        <mxCell id="6P3J1ddqpNdzm3xkEEqz-9" value="NIC" style="ellipse;whiteSpace=wrap;html=1;shadow=0;fontFamily=Helvetica;fontSize=30;fontColor=#2F5B7C;align=center;strokeColor=#2F5B7C;strokeWidth=6;fillColor=#FFFFFF;fontStyle=1;gradientColor=none;" parent="1" vertex="1">
          <mxGeometry x="-970" y="1680" width="200" height="200" as="geometry" />
        </mxCell>
        <mxCell id="RA4yXV4o2ofGShOG1ZT5-9" value="LiepU" style="ellipse;whiteSpace=wrap;html=1;shadow=0;fontFamily=Helvetica;fontSize=30;fontColor=#2F5B7C;align=center;strokeColor=#2F5B7C;strokeWidth=6;fillColor=#FFFFFF;fontStyle=1;gradientColor=none;" vertex="1" parent="1">
          <mxGeometry x="-450" y="1200" width="200" height="200" as="geometry" />
        </mxCell>
        <mxCell id="RA4yXV4o2ofGShOG1ZT5-12" value="Actionline" style="ellipse;whiteSpace=wrap;html=1;shadow=0;fontFamily=Helvetica;fontSize=30;fontColor=#2F5B7C;align=center;strokeColor=#2F5B7C;strokeWidth=6;fillColor=#FFFFFF;fontStyle=1;gradientColor=none;" vertex="1" parent="1">
          <mxGeometry x="1590" y="1220" width="200" height="200" as="geometry" />
        </mxCell>
        <mxCell id="RA4yXV4o2ofGShOG1ZT5-19" value="" style="endArrow=classic;html=1;rounded=0;fontSize=29;strokeWidth=12;flowAnimation=0;" edge="1" parent="1" source="6P3J1ddqpNdzm3xkEEqz-1" target="6P3J1ddqpNdzm3xkEEqz-7">
          <mxGeometry width="50" height="50" relative="1" as="geometry">
            <mxPoint x="120" y="1880" as="sourcePoint" />
            <mxPoint x="170" y="1830" as="targetPoint" />
            <Array as="points">
              <mxPoint x="700" y="2350" />
            </Array>
          </mxGeometry>
        </mxCell>
        <mxCell id="RA4yXV4o2ofGShOG1ZT5-20" value="3 months" style="edgeLabel;html=1;align=center;verticalAlign=middle;resizable=0;points=[];fontSize=29;horizontal=1;" vertex="1" connectable="0" parent="RA4yXV4o2ofGShOG1ZT5-19">
          <mxGeometry x="-0.1701" y="7" relative="1" as="geometry">
            <mxPoint x="-6" y="8" as="offset" />
          </mxGeometry>
        </mxCell>
        <mxCell id="RA4yXV4o2ofGShOG1ZT5-21" value="" style="endArrow=classic;html=1;rounded=0;fontSize=29;entryX=0.5;entryY=1;entryDx=0;entryDy=0;exitX=1;exitY=0.5;exitDx=0;exitDy=0;strokeWidth=12;flowAnimation=0;" edge="1" parent="1">
          <mxGeometry width="50" height="50" relative="1" as="geometry">
            <mxPoint x="1539.9999999999955" y="2014.9999999999995" as="sourcePoint" />
            <mxPoint x="2000" y="1819.9999999999995" as="targetPoint" />
          </mxGeometry>
        </mxCell>
        <mxCell id="RA4yXV4o2ofGShOG1ZT5-22" value="3 months" style="edgeLabel;html=1;align=center;verticalAlign=middle;resizable=0;points=[];fontSize=29;horizontal=1;" vertex="1" connectable="0" parent="RA4yXV4o2ofGShOG1ZT5-21">
          <mxGeometry x="-0.1701" y="7" relative="1" as="geometry">
            <mxPoint x="-118" y="52" as="offset" />
          </mxGeometry>
        </mxCell>
        <mxCell id="RA4yXV4o2ofGShOG1ZT5-23" value="" style="endArrow=classic;html=1;rounded=0;fontSize=29;entryX=0.5;entryY=1;entryDx=0;entryDy=0;exitX=1;exitY=0.5;exitDx=0;exitDy=0;strokeWidth=12;flowAnimation=0;" edge="1" parent="1">
          <mxGeometry width="50" height="50" relative="1" as="geometry">
            <mxPoint x="1619.9999999999955" y="2164.9999999999995" as="sourcePoint" />
            <mxPoint x="2080" y="1969.9999999999995" as="targetPoint" />
          </mxGeometry>
        </mxCell>
        <mxCell id="RA4yXV4o2ofGShOG1ZT5-24" value="2 months" style="edgeLabel;html=1;align=center;verticalAlign=middle;resizable=0;points=[];fontSize=29;horizontal=1;" vertex="1" connectable="0" parent="RA4yXV4o2ofGShOG1ZT5-23">
          <mxGeometry x="-0.1701" y="7" relative="1" as="geometry">
            <mxPoint x="-118" y="52" as="offset" />
          </mxGeometry>
        </mxCell>
        <mxCell id="RA4yXV4o2ofGShOG1ZT5-25" value="" style="endArrow=classic;html=1;rounded=0;fontSize=29;entryX=0.5;entryY=1;entryDx=0;entryDy=0;exitX=1;exitY=0.5;exitDx=0;exitDy=0;strokeWidth=12;flowAnimation=0;jumpStyle=none;" edge="1" parent="1">
          <mxGeometry width="50" height="50" relative="1" as="geometry">
            <mxPoint x="1729.9999999999955" y="2264.9999999999995" as="sourcePoint" />
            <mxPoint x="2190" y="2069.9999999999995" as="targetPoint" />
          </mxGeometry>
        </mxCell>
        <mxCell id="RA4yXV4o2ofGShOG1ZT5-26" value="1 months" style="edgeLabel;html=1;align=center;verticalAlign=middle;resizable=0;points=[];fontSize=29;horizontal=1;" vertex="1" connectable="0" parent="RA4yXV4o2ofGShOG1ZT5-25">
          <mxGeometry x="-0.1701" y="7" relative="1" as="geometry">
            <mxPoint x="-98" y="42" as="offset" />
          </mxGeometry>
        </mxCell>
        <mxCell id="RA4yXV4o2ofGShOG1ZT5-28" value="" style="endArrow=classic;html=1;rounded=0;fontSize=29;entryX=1;entryY=1;entryDx=0;entryDy=0;strokeWidth=12;flowAnimation=0;exitX=0.5;exitY=0;exitDx=0;exitDy=0;" edge="1" parent="1" source="6P3J1ddqpNdzm3xkEEqz-1" target="6P3J1ddqpNdzm3xkEEqz-4">
          <mxGeometry width="50" height="50" relative="1" as="geometry">
            <mxPoint x="1579.9999999999964" y="2004.9999999999995" as="sourcePoint" />
            <mxPoint x="2040" y="1809.9999999999995" as="targetPoint" />
            <Array as="points">
              <mxPoint x="540" y="1580" />
            </Array>
          </mxGeometry>
        </mxCell>
        <mxCell id="RA4yXV4o2ofGShOG1ZT5-29" value="1 months" style="edgeLabel;html=1;align=center;verticalAlign=middle;resizable=0;points=[];fontSize=29;horizontal=1;" vertex="1" connectable="0" parent="RA4yXV4o2ofGShOG1ZT5-28">
          <mxGeometry x="-0.1701" y="7" relative="1" as="geometry">
            <mxPoint x="-1" as="offset" />
          </mxGeometry>
        </mxCell>
        <mxCell id="RA4yXV4o2ofGShOG1ZT5-30" value="" style="endArrow=classic;html=1;rounded=0;fontSize=29;strokeWidth=12;flowAnimation=0;" edge="1" parent="1" source="6P3J1ddqpNdzm3xkEEqz-1" target="6P3J1ddqpNdzm3xkEEqz-6">
          <mxGeometry width="50" height="50" relative="1" as="geometry">
            <mxPoint x="1579.9999999999964" y="2004.9999999999995" as="sourcePoint" />
            <mxPoint x="2040" y="1809.9999999999995" as="targetPoint" />
            <Array as="points">
              <mxPoint x="500" y="2390" />
            </Array>
          </mxGeometry>
        </mxCell>
        <mxCell id="RA4yXV4o2ofGShOG1ZT5-31" value="3 months" style="edgeLabel;html=1;align=center;verticalAlign=middle;resizable=0;points=[];fontSize=29;horizontal=1;" vertex="1" connectable="0" parent="RA4yXV4o2ofGShOG1ZT5-30">
          <mxGeometry x="-0.1701" y="7" relative="1" as="geometry">
            <mxPoint x="-2" y="25" as="offset" />
          </mxGeometry>
        </mxCell>
        <mxCell id="RA4yXV4o2ofGShOG1ZT5-32" value="" style="endArrow=classic;html=1;rounded=0;fontSize=29;strokeWidth=12;entryX=0.994;entryY=0.755;entryDx=0;entryDy=0;entryPerimeter=0;flowAnimation=0;" edge="1" parent="1" source="6P3J1ddqpNdzm3xkEEqz-1" target="RA4yXV4o2ofGShOG1ZT5-9">
          <mxGeometry width="50" height="50" relative="1" as="geometry">
            <mxPoint x="1469.9999999999955" y="1904.9999999999995" as="sourcePoint" />
            <mxPoint x="-140" y="1290" as="targetPoint" />
          </mxGeometry>
        </mxCell>
        <mxCell id="RA4yXV4o2ofGShOG1ZT5-33" value="2 months" style="edgeLabel;html=1;align=center;verticalAlign=middle;resizable=0;points=[];fontSize=29;horizontal=1;" vertex="1" connectable="0" parent="RA4yXV4o2ofGShOG1ZT5-32">
          <mxGeometry x="-0.1701" y="7" relative="1" as="geometry">
            <mxPoint x="-1" as="offset" />
          </mxGeometry>
        </mxCell>
        <mxCell id="RA4yXV4o2ofGShOG1ZT5-34" value="" style="endArrow=classic;html=1;rounded=0;fontSize=29;entryX=0.961;entryY=0.233;entryDx=0;entryDy=0;strokeWidth=12;entryPerimeter=0;flowAnimation=0;" edge="1" parent="1" source="6P3J1ddqpNdzm3xkEEqz-1" target="6P3J1ddqpNdzm3xkEEqz-8">
          <mxGeometry width="50" height="50" relative="1" as="geometry">
            <mxPoint x="1579.9999999999955" y="2004.9999999999995" as="sourcePoint" />
            <mxPoint x="2040" y="1809.9999999999995" as="targetPoint" />
          </mxGeometry>
        </mxCell>
        <mxCell id="RA4yXV4o2ofGShOG1ZT5-35" value="1 months" style="edgeLabel;html=1;align=center;verticalAlign=middle;resizable=0;points=[];fontSize=29;horizontal=1;" vertex="1" connectable="0" parent="RA4yXV4o2ofGShOG1ZT5-34">
          <mxGeometry x="-0.1701" y="7" relative="1" as="geometry">
            <mxPoint x="-1" as="offset" />
          </mxGeometry>
        </mxCell>
        <mxCell id="RA4yXV4o2ofGShOG1ZT5-36" value="" style="endArrow=classic;html=1;rounded=0;fontSize=29;entryX=0.988;entryY=0.633;entryDx=0;entryDy=0;strokeWidth=12;entryPerimeter=0;flowAnimation=0;" edge="1" parent="1" source="6P3J1ddqpNdzm3xkEEqz-1" target="6P3J1ddqpNdzm3xkEEqz-9">
          <mxGeometry width="50" height="50" relative="1" as="geometry">
            <mxPoint x="1579.9999999999955" y="2004.9999999999995" as="sourcePoint" />
            <mxPoint x="2040" y="1809.9999999999995" as="targetPoint" />
          </mxGeometry>
        </mxCell>
        <mxCell id="RA4yXV4o2ofGShOG1ZT5-37" value="1 months" style="edgeLabel;html=1;align=center;verticalAlign=middle;resizable=0;points=[];fontSize=29;horizontal=1;" vertex="1" connectable="0" parent="RA4yXV4o2ofGShOG1ZT5-36">
          <mxGeometry x="-0.1701" y="7" relative="1" as="geometry">
            <mxPoint x="-1" as="offset" />
          </mxGeometry>
        </mxCell>
        <mxCell id="RA4yXV4o2ofGShOG1ZT5-38" value="" style="endArrow=classic;html=1;rounded=0;fontSize=29;strokeWidth=12;fontStyle=1;entryX=1.027;entryY=0.394;entryDx=0;entryDy=0;entryPerimeter=0;flowAnimation=0;" edge="1" parent="1" source="RA4yXV4o2ofGShOG1ZT5-12" target="6P3J1ddqpNdzm3xkEEqz-4">
          <mxGeometry width="50" height="50" relative="1" as="geometry">
            <mxPoint x="1589.9999999999955" y="2014.9999999999995" as="sourcePoint" />
            <mxPoint x="930" y="2000" as="targetPoint" />
          </mxGeometry>
        </mxCell>
        <mxCell id="RA4yXV4o2ofGShOG1ZT5-39" value="1 months" style="edgeLabel;html=1;align=center;verticalAlign=middle;resizable=0;points=[];fontSize=29;horizontal=1;" vertex="1" connectable="0" parent="RA4yXV4o2ofGShOG1ZT5-38">
          <mxGeometry x="-0.1701" y="7" relative="1" as="geometry">
            <mxPoint x="-1" as="offset" />
          </mxGeometry>
        </mxCell>
        <mxCell id="RA4yXV4o2ofGShOG1ZT5-40" value="" style="endArrow=classic;html=1;rounded=0;fontSize=29;strokeWidth=12;entryX=1;entryY=0;entryDx=0;entryDy=0;flowAnimation=0;" edge="1" parent="1" source="RA4yXV4o2ofGShOG1ZT5-12" target="6P3J1ddqpNdzm3xkEEqz-1">
          <mxGeometry width="50" height="50" relative="1" as="geometry">
            <mxPoint x="1389.9999999999955" y="1754.9999999999995" as="sourcePoint" />
            <mxPoint x="960" y="1780" as="targetPoint" />
          </mxGeometry>
        </mxCell>
        <mxCell id="RA4yXV4o2ofGShOG1ZT5-41" value="3 months" style="edgeLabel;html=1;align=center;verticalAlign=middle;resizable=0;points=[];fontSize=29;horizontal=1;" vertex="1" connectable="0" parent="RA4yXV4o2ofGShOG1ZT5-40">
          <mxGeometry x="-0.1701" y="7" relative="1" as="geometry">
            <mxPoint x="-1" as="offset" />
          </mxGeometry>
        </mxCell>
        <mxCell id="RA4yXV4o2ofGShOG1ZT5-42" value="" style="endArrow=classic;html=1;rounded=0;fontSize=29;entryX=1;entryY=0;entryDx=0;entryDy=0;strokeWidth=12;flowAnimation=0;jumpStyle=none;" edge="1" parent="1" source="RA4yXV4o2ofGShOG1ZT5-12" target="6P3J1ddqpNdzm3xkEEqz-9">
          <mxGeometry width="50" height="50" relative="1" as="geometry">
            <mxPoint x="1579.9999999999955" y="2004.9999999999995" as="sourcePoint" />
            <mxPoint x="2040" y="1809.9999999999995" as="targetPoint" />
          </mxGeometry>
        </mxCell>
        <mxCell id="RA4yXV4o2ofGShOG1ZT5-43" value="1 months" style="edgeLabel;html=1;align=center;verticalAlign=middle;resizable=0;points=[];fontSize=29;horizontal=1;" vertex="1" connectable="0" parent="RA4yXV4o2ofGShOG1ZT5-42">
          <mxGeometry x="-0.1701" y="7" relative="1" as="geometry">
            <mxPoint x="482" y="-41" as="offset" />
          </mxGeometry>
        </mxCell>
        <mxCell id="RA4yXV4o2ofGShOG1ZT5-44" value="" style="endArrow=classic;html=1;rounded=0;fontSize=29;strokeWidth=12;flowAnimation=0;strokeColor=default;" edge="1" parent="1" source="6P3J1ddqpNdzm3xkEEqz-4" target="6P3J1ddqpNdzm3xkEEqz-1">
          <mxGeometry width="50" height="50" relative="1" as="geometry">
            <mxPoint x="1389.9999999999955" y="1754.9999999999995" as="sourcePoint" />
            <mxPoint x="420" y="1880" as="targetPoint" />
            <Array as="points">
              <mxPoint x="360" y="1600" />
            </Array>
          </mxGeometry>
        </mxCell>
        <mxCell id="RA4yXV4o2ofGShOG1ZT5-45" value="4 months" style="edgeLabel;html=1;align=center;verticalAlign=middle;resizable=0;points=[];fontSize=29;horizontal=1;" vertex="1" connectable="0" parent="RA4yXV4o2ofGShOG1ZT5-44">
          <mxGeometry x="-0.1701" y="7" relative="1" as="geometry">
            <mxPoint x="-14" y="106" as="offset" />
          </mxGeometry>
        </mxCell>
        <mxCell id="RA4yXV4o2ofGShOG1ZT5-46" value="Emoda" style="ellipse;whiteSpace=wrap;html=1;shadow=0;fontFamily=Helvetica;fontSize=30;fontColor=#2F5B7C;align=center;strokeColor=#2F5B7C;strokeWidth=6;fillColor=#FFFFFF;fontStyle=1;gradientColor=none;" vertex="1" parent="1">
          <mxGeometry x="-130" y="880" width="200" height="200" as="geometry" />
        </mxCell>
        <mxCell id="RA4yXV4o2ofGShOG1ZT5-47" value="" style="endArrow=classic;html=1;rounded=0;fontSize=29;entryX=0.015;entryY=0.375;entryDx=0;entryDy=0;strokeWidth=12;flowAnimation=0;entryPerimeter=0;" edge="1" parent="1" source="RA4yXV4o2ofGShOG1ZT5-46" target="6P3J1ddqpNdzm3xkEEqz-4">
          <mxGeometry width="50" height="50" relative="1" as="geometry">
            <mxPoint x="1469.9999999999955" y="1904.9999999999995" as="sourcePoint" />
            <mxPoint x="1930" y="1709.9999999999995" as="targetPoint" />
          </mxGeometry>
        </mxCell>
        <mxCell id="RA4yXV4o2ofGShOG1ZT5-48" value="2 months" style="edgeLabel;html=1;align=center;verticalAlign=middle;resizable=0;points=[];fontSize=29;horizontal=1;" vertex="1" connectable="0" parent="RA4yXV4o2ofGShOG1ZT5-47">
          <mxGeometry x="-0.1701" y="7" relative="1" as="geometry">
            <mxPoint x="285" y="362" as="offset" />
          </mxGeometry>
        </mxCell>
        <mxCell id="RA4yXV4o2ofGShOG1ZT5-49" value="" style="endArrow=classic;html=1;rounded=0;fontSize=29;entryX=0.6;entryY=1;entryDx=0;entryDy=0;strokeWidth=12;flowAnimation=0;jumpStyle=none;entryPerimeter=0;" edge="1" parent="1" source="6P3J1ddqpNdzm3xkEEqz-6" target="RA4yXV4o2ofGShOG1ZT5-12">
          <mxGeometry width="50" height="50" relative="1" as="geometry">
            <mxPoint x="1579.9999999999955" y="2004.9999999999995" as="sourcePoint" />
            <mxPoint x="2040" y="1809.9999999999995" as="targetPoint" />
            <Array as="points">
              <mxPoint x="1050" y="2260" />
            </Array>
          </mxGeometry>
        </mxCell>
        <mxCell id="RA4yXV4o2ofGShOG1ZT5-50" value="1 months" style="edgeLabel;html=1;align=center;verticalAlign=middle;resizable=0;points=[];fontSize=29;horizontal=1;" vertex="1" connectable="0" parent="RA4yXV4o2ofGShOG1ZT5-49">
          <mxGeometry x="-0.1701" y="7" relative="1" as="geometry">
            <mxPoint x="4" y="8" as="offset" />
          </mxGeometry>
        </mxCell>
        <mxCell id="RA4yXV4o2ofGShOG1ZT5-51" value="" style="endArrow=classic;html=1;rounded=0;fontSize=29;strokeWidth=12;flowAnimation=0;" edge="1" parent="1" source="6P3J1ddqpNdzm3xkEEqz-6" target="6P3J1ddqpNdzm3xkEEqz-1">
          <mxGeometry width="50" height="50" relative="1" as="geometry">
            <mxPoint x="1549.9999999999955" y="2024.9999999999995" as="sourcePoint" />
            <mxPoint x="2010" y="1829.9999999999995" as="targetPoint" />
            <Array as="points">
              <mxPoint x="320" y="2380" />
            </Array>
          </mxGeometry>
        </mxCell>
        <mxCell id="RA4yXV4o2ofGShOG1ZT5-52" value="3 months" style="edgeLabel;html=1;align=center;verticalAlign=middle;resizable=0;points=[];fontSize=29;horizontal=1;" vertex="1" connectable="0" parent="RA4yXV4o2ofGShOG1ZT5-51">
          <mxGeometry x="-0.1701" y="7" relative="1" as="geometry">
            <mxPoint x="4" y="-40" as="offset" />
          </mxGeometry>
        </mxCell>
        <mxCell id="RA4yXV4o2ofGShOG1ZT5-55" value="" style="endArrow=classic;html=1;rounded=0;fontSize=29;entryX=0.5;entryY=1;entryDx=0;entryDy=0;strokeWidth=12;flowAnimation=0;jumpStyle=none;exitX=0.033;exitY=0.247;exitDx=0;exitDy=0;exitPerimeter=0;" edge="1" parent="1" source="6P3J1ddqpNdzm3xkEEqz-6" target="RA4yXV4o2ofGShOG1ZT5-9">
          <mxGeometry width="50" height="50" relative="1" as="geometry">
            <mxPoint x="250" y="2720" as="sourcePoint" />
            <mxPoint x="2200" y="2079.9999999999995" as="targetPoint" />
            <Array as="points">
              <mxPoint x="-220" y="2100" />
            </Array>
          </mxGeometry>
        </mxCell>
        <mxCell id="RA4yXV4o2ofGShOG1ZT5-56" value="1 months" style="edgeLabel;html=1;align=center;verticalAlign=middle;resizable=0;points=[];fontSize=29;horizontal=1;" vertex="1" connectable="0" parent="RA4yXV4o2ofGShOG1ZT5-55">
          <mxGeometry x="-0.1701" y="7" relative="1" as="geometry">
            <mxPoint x="-90" y="-117" as="offset" />
          </mxGeometry>
        </mxCell>
        <mxCell id="RA4yXV4o2ofGShOG1ZT5-57" value="" style="endArrow=classic;html=1;rounded=0;fontSize=29;strokeWidth=12;flowAnimation=0;" edge="1" parent="1" source="6P3J1ddqpNdzm3xkEEqz-7" target="6P3J1ddqpNdzm3xkEEqz-1">
          <mxGeometry width="50" height="50" relative="1" as="geometry">
            <mxPoint x="1549.9999999999955" y="2024.9999999999995" as="sourcePoint" />
            <mxPoint x="2010" y="1829.9999999999995" as="targetPoint" />
            <Array as="points">
              <mxPoint x="860" y="2180" />
            </Array>
          </mxGeometry>
        </mxCell>
        <mxCell id="RA4yXV4o2ofGShOG1ZT5-58" value="3 months" style="edgeLabel;html=1;align=center;verticalAlign=middle;resizable=0;points=[];fontSize=29;horizontal=1;" vertex="1" connectable="0" parent="RA4yXV4o2ofGShOG1ZT5-57">
          <mxGeometry x="-0.1701" y="7" relative="1" as="geometry">
            <mxPoint x="-47" y="-115" as="offset" />
          </mxGeometry>
        </mxCell>
        <mxCell id="RA4yXV4o2ofGShOG1ZT5-59" value="" style="endArrow=classic;html=1;rounded=0;fontSize=29;strokeWidth=12;flowAnimation=0;jumpStyle=none;" edge="1" parent="1" source="6P3J1ddqpNdzm3xkEEqz-6" target="6P3J1ddqpNdzm3xkEEqz-7">
          <mxGeometry width="50" height="50" relative="1" as="geometry">
            <mxPoint x="1739.9999999999964" y="2275" as="sourcePoint" />
            <mxPoint x="2200" y="2080" as="targetPoint" />
          </mxGeometry>
        </mxCell>
        <mxCell id="RA4yXV4o2ofGShOG1ZT5-60" value="1 months" style="edgeLabel;html=1;align=center;verticalAlign=middle;resizable=0;points=[];fontSize=29;horizontal=1;" vertex="1" connectable="0" parent="RA4yXV4o2ofGShOG1ZT5-59">
          <mxGeometry x="-0.1701" y="7" relative="1" as="geometry">
            <mxPoint x="8" y="4" as="offset" />
          </mxGeometry>
        </mxCell>
        <mxCell id="RA4yXV4o2ofGShOG1ZT5-61" value="" style="endArrow=classic;html=1;rounded=0;fontSize=29;exitX=1;exitY=0;exitDx=0;exitDy=0;strokeWidth=12;flowAnimation=0;" edge="1" parent="1" source="RA4yXV4o2ofGShOG1ZT5-9" target="RA4yXV4o2ofGShOG1ZT5-46">
          <mxGeometry width="50" height="50" relative="1" as="geometry">
            <mxPoint x="1549.9999999999955" y="2024.9999999999995" as="sourcePoint" />
            <mxPoint x="280" y="1150" as="targetPoint" />
          </mxGeometry>
        </mxCell>
        <mxCell id="RA4yXV4o2ofGShOG1ZT5-62" value="3 months" style="edgeLabel;html=1;align=center;verticalAlign=middle;resizable=0;points=[];fontSize=29;horizontal=1;" vertex="1" connectable="0" parent="RA4yXV4o2ofGShOG1ZT5-61">
          <mxGeometry x="-0.1701" y="7" relative="1" as="geometry">
            <mxPoint x="-40" y="28" as="offset" />
          </mxGeometry>
        </mxCell>
        <mxCell id="RA4yXV4o2ofGShOG1ZT5-63" value="" style="endArrow=classic;html=1;rounded=0;fontSize=29;strokeWidth=12;flowAnimation=0;exitX=0;exitY=1;exitDx=0;exitDy=0;entryX=0;entryY=0.5;entryDx=0;entryDy=0;" edge="1" parent="1" source="RA4yXV4o2ofGShOG1ZT5-9" target="6P3J1ddqpNdzm3xkEEqz-6">
          <mxGeometry width="50" height="50" relative="1" as="geometry">
            <mxPoint x="1629.9999999999955" y="2174.9999999999995" as="sourcePoint" />
            <mxPoint x="2090" y="1979.9999999999995" as="targetPoint" />
            <Array as="points">
              <mxPoint x="-570" y="2170" />
            </Array>
          </mxGeometry>
        </mxCell>
        <mxCell id="RA4yXV4o2ofGShOG1ZT5-64" value="2 months" style="edgeLabel;html=1;align=center;verticalAlign=middle;resizable=0;points=[];fontSize=29;horizontal=1;" vertex="1" connectable="0" parent="RA4yXV4o2ofGShOG1ZT5-63">
          <mxGeometry x="-0.1701" y="7" relative="1" as="geometry">
            <mxPoint x="2" y="21" as="offset" />
          </mxGeometry>
        </mxCell>
      </root>
    </mxGraphModel>
  </diagram>
</mxfile>
